<svg width="16" height="13" viewBox="0 0 16 13" fill="none" xmlns="http://www.w3.org/2000/svg">
<path d="M1.91298 7.24222H0.231773C0.103957 7.24222 0 7.34789 0 7.4757V12.3472C0 12.475 0.103957 12.579 0.231773 12.579H1.91298C2.04079 12.579 2.14475 12.475 2.14475 12.3472V7.4757C2.1456 7.34789 2.04165 7.24222 1.91298 7.24222Z" fill="#0D0D0D"/>
<path d="M15.7674 7.24222H14.0862C13.9584 7.24222 13.8552 7.34789 13.8552 7.4757V12.3472C13.8552 12.475 13.9584 12.579 14.0862 12.579H15.7674C15.8969 12.579 16 12.475 16 12.3472V7.4757C16 7.34789 15.8969 7.24222 15.7674 7.24222Z" fill="#0D0D0D"/>
<path d="M5.03339 4.45754H3.35219C3.22437 4.45754 3.11956 4.5615 3.11956 4.69017V12.3455C3.11956 12.4733 3.22437 12.5773 3.35219 12.5773H5.03339C5.16206 12.5773 5.26602 12.4733 5.26602 12.3455V4.69017C5.26602 4.56064 5.16206 4.45754 5.03339 4.45754Z" fill="#0D0D0D"/>
<path d="M12.1604 4.45754H10.4792C10.3514 4.45754 10.2483 4.5615 10.2483 4.69017V12.3455C10.2483 12.4733 10.3514 12.5773 10.4792 12.5773H12.1604C12.2899 12.5773 12.393 12.4733 12.393 12.3455V4.69017C12.3939 4.56064 12.2908 4.45754 12.1604 4.45754Z" fill="#0D0D0D"/>
<path d="M8.52958 6.15323H6.84753C6.71971 6.15323 6.61575 6.25804 6.61575 6.385V12.3446C6.61575 12.4725 6.71971 12.5764 6.84753 12.5764H8.52958C8.6591 12.5764 8.76221 12.4725 8.76221 12.3446V6.385C8.76221 6.25804 8.6591 6.15323 8.52958 6.15323Z" fill="#0D0D0D"/>
<path d="M1.0728 4.2181C1.56788 4.2181 1.96837 3.81761 1.96837 3.32253C1.96837 3.23647 1.95218 3.15552 1.92917 3.07713L3.81318 1.72143C3.92906 1.77596 4.05688 1.80834 4.19321 1.80834C4.45652 1.80834 4.68999 1.69331 4.85445 1.51266L6.6328 2.54201C6.62257 2.59484 6.61575 2.64937 6.61575 2.70391C6.61575 3.19813 7.01709 3.59947 7.51132 3.59947C7.98764 3.59947 8.37365 3.22625 8.40092 2.75674L10.7987 2.05545C10.9615 2.2787 11.2231 2.42612 11.5213 2.42612C11.719 2.42612 11.8988 2.36051 12.0471 2.25144L14.0623 3.61822C14.0453 3.68894 14.0308 3.76307 14.0308 3.83976C14.0308 4.33484 14.4321 4.73618 14.9263 4.73618C15.4206 4.73618 15.8236 4.33484 15.8236 3.83976C15.8236 3.34469 15.4206 2.9442 14.9263 2.9442C14.7287 2.9442 14.5489 3.00981 14.4006 3.11803L12.3871 1.75381C12.4041 1.68223 12.4169 1.60895 12.4169 1.53226C12.4169 1.03719 12.0173 0.636696 11.5213 0.636696C11.045 0.636696 10.659 1.00992 10.6309 1.47943L8.2339 2.17986C8.07115 1.95576 7.8087 1.80919 7.51132 1.80919C7.29062 1.80919 7.09208 1.891 6.93615 2.02307L5.08537 0.950271C5.08537 0.937489 5.08878 0.926412 5.08878 0.914482C5.08878 0.419409 4.68829 0.0180664 4.19321 0.0180664C3.69814 0.0180664 3.29765 0.418556 3.29765 0.91363C3.29765 1.04826 3.33003 1.17437 3.38286 1.28941L1.58066 2.58631C1.43665 2.48577 1.26197 2.42697 1.0728 2.42697C0.577728 2.42697 0.177238 2.82831 0.177238 3.32253C0.177238 3.81761 0.577728 4.2181 1.0728 4.2181Z" fill="#0D0D0D"/>
</svg>
