<svg width="20" height="12" viewBox="0 0 20 12" fill="none" xmlns="http://www.w3.org/2000/svg">
<path d="M19.8507 5.58965C19.6722 5.39051 15.3782 0.707031 10 0.707031C4.62181 0.707031 0.32791 5.39051 0.149355 5.58965C-0.0497851 5.81222 -0.0497851 6.14871 0.149355 6.37129C0.32791 6.57043 4.62189 11.2539 10 11.2539C15.3781 11.2539 19.6721 6.57043 19.8507 6.37129C20.0498 6.14871 20.0498 5.81222 19.8507 5.58965ZM10 10.082C7.73865 10.082 5.89845 8.24183 5.89845 5.98047C5.89845 3.7191 7.73865 1.87891 10 1.87891C12.2614 1.87891 14.1016 3.7191 14.1016 5.98047C14.1016 8.24183 12.2614 10.082 10 10.082Z" fill="#0D0D0D"/>
<path d="M10.586 4.80859C10.586 4.21914 10.8786 3.70058 11.3237 3.38164C10.9243 3.17715 10.4787 3.05078 10 3.05078C8.38467 3.05078 7.07033 4.36512 7.07033 5.98047C7.07033 7.59582 8.38467 8.91015 10 8.91015C11.4463 8.91015 12.6433 7.85414 12.8798 6.47429C11.6999 6.85418 10.586 5.96179 10.586 4.80859Z" fill="#0D0D0D"/>
</svg>
