<svg width="21" height="21" viewBox="0 0 21 21" fill="none" xmlns="http://www.w3.org/2000/svg">
<path fill-rule="evenodd" clip-rule="evenodd" d="M10.3098 15.36C7.58312 15.36 5.37269 13.0677 5.37269 10.24C5.37269 7.4123 7.58312 5.12 10.3098 5.12C13.0365 5.12 15.247 7.4123 15.247 10.24C15.247 13.0677 13.0365 15.36 10.3098 15.36ZM10.3098 13.312C11.9459 13.312 13.2721 11.9366 13.2721 10.24C13.2721 8.54338 11.9459 7.168 10.3098 7.168C8.67381 7.168 7.34755 8.54338 7.34755 10.24C7.34755 11.9366 8.67381 13.312 10.3098 13.312Z" fill="#CECECE"/>
<path d="M16.2344 5.12C16.2344 5.68554 15.7923 6.144 15.247 6.144C14.7016 6.144 14.2595 5.68554 14.2595 5.12C14.2595 4.55446 14.7016 4.096 15.247 4.096C15.7923 4.096 16.2344 4.55446 16.2344 5.12Z" fill="#CECECE"/>
<path fill-rule="evenodd" clip-rule="evenodd" d="M14.2595 0H6.36012C3.08807 0 0.435547 2.75076 0.435547 6.144V14.336C0.435547 17.7292 3.08807 20.48 6.36012 20.48H14.2595C17.5316 20.48 20.1841 17.7292 20.1841 14.336V6.144C20.1841 2.75076 17.5316 0 14.2595 0ZM2.4104 6.144C2.4104 3.88184 4.17875 2.048 6.36012 2.048H14.2595C16.4409 2.048 18.2093 3.88184 18.2093 6.144V14.336C18.2093 16.5982 16.4409 18.432 14.2595 18.432H6.36012C4.17875 18.432 2.4104 16.5982 2.4104 14.336V6.144Z" fill="#CECECE"/>
</svg>
