<svg width="25" height="25" viewBox="0 0 25 25" fill="none" xmlns="http://www.w3.org/2000/svg">
<path fill-rule="evenodd" clip-rule="evenodd" d="M1.49713 23.6763L6.00224 22.4946L6.43689 22.7525C8.26445 23.837 10.3594 24.4109 12.4953 24.4117H12.5001C19.0608 24.4117 24.4005 19.0719 24.4031 12.5085C24.4044 9.32793 23.1674 6.33737 20.9201 4.08742C18.6728 1.83747 15.6841 0.597782 12.5048 0.59668C5.93908 0.59668 0.599285 5.93599 0.596681 12.4989C0.595757 14.748 1.22507 16.9384 2.41659 18.8335L2.69961 19.2839L1.49713 23.6763ZM19.2248 15.5925C19.4744 15.7132 19.6429 15.7946 19.7149 15.9147C19.8043 16.0639 19.8043 16.7804 19.5063 17.6164C19.208 18.4522 17.7784 19.2151 17.0908 19.3178C16.4744 19.41 15.6942 19.4484 14.837 19.176C14.3173 19.0111 13.6508 18.791 12.7971 18.4223C9.44241 16.9737 7.17536 13.7223 6.74689 13.1078C6.71688 13.0648 6.69589 13.0347 6.68417 13.019L6.68129 13.0152C6.49191 12.7625 5.22304 11.0695 5.22304 9.31736C5.22304 7.66907 6.0327 6.80512 6.40539 6.40744C6.43092 6.3802 6.45441 6.35514 6.47544 6.33217C6.80343 5.97392 7.19113 5.88436 7.42967 5.88436C7.66819 5.88436 7.90701 5.88656 8.11549 5.89703C8.14122 5.89832 8.16798 5.89817 8.19564 5.89801C8.40417 5.89678 8.66414 5.89526 8.92061 6.51129C9.01927 6.74837 9.16364 7.09984 9.3159 7.47054C9.62382 8.22017 9.96403 9.04842 10.0239 9.16827C10.1134 9.3474 10.173 9.55628 10.0537 9.79521C10.0358 9.83103 10.0192 9.86484 10.0034 9.89714C9.91384 10.08 9.84794 10.2146 9.69589 10.3921C9.6361 10.4619 9.5743 10.5372 9.51251 10.6124C9.3894 10.7624 9.26631 10.9123 9.15912 11.019C8.97998 11.1975 8.7935 11.3911 9.00223 11.7493C9.21097 12.1076 9.92912 13.2793 10.9929 14.2282C12.1364 15.2482 13.1303 15.6793 13.6341 15.8978C13.7324 15.9405 13.8121 15.975 13.8706 16.0043C14.2283 16.1835 14.437 16.1535 14.6458 15.9147C14.8545 15.6759 15.5403 14.8698 15.7788 14.5116C16.0173 14.1535 16.256 14.2132 16.5839 14.3325C16.912 14.4521 18.6713 15.3177 19.0291 15.4968C19.099 15.5317 19.1643 15.5633 19.2248 15.5925Z" fill="#CECECE"/>
</svg>
