<svg width="24" height="13" viewBox="0 0 24 13" fill="none" xmlns="http://www.w3.org/2000/svg">
<path d="M22.4828 10.5302C21.798 9.70984 20.9921 9.00971 20.2296 8.26626C19.5417 7.59613 19.4983 7.20739 20.0513 6.43394C20.6548 5.5898 21.3039 4.77803 21.9129 3.93769C22.4814 3.15234 23.0625 2.36913 23.3616 1.42881C23.5513 0.830578 23.3835 0.566335 22.7693 0.461591C22.6635 0.44326 22.5541 0.442308 22.4463 0.442308L18.8021 0.438023C18.3533 0.431358 18.1051 0.626802 17.9464 1.02412C17.7321 1.56117 17.5112 2.09775 17.2559 2.616C16.6767 3.79104 16.0298 4.92681 15.1228 5.88856C14.9228 6.10067 14.7016 6.36872 14.3675 6.25826C13.9494 6.1059 13.8262 5.41792 13.8331 5.18534L13.8295 0.984362C13.7485 0.384223 13.6152 0.116648 13.0186 0L9.23303 0.00071423C8.72771 0.00071423 8.47434 0.195682 8.20452 0.511344C8.04887 0.693695 8.00192 0.812009 8.32179 0.872476C8.9501 0.991504 9.30406 1.39763 9.39797 2.02681C9.54861 3.03212 9.53813 4.04148 9.45136 5.05084C9.42586 5.34555 9.37509 5.63955 9.25806 5.91474C9.075 6.34729 8.77944 6.43537 8.39115 6.16923C8.03958 5.92831 7.79264 5.58837 7.55095 5.247C6.64305 3.96578 5.91868 2.5841 5.32803 1.1322C5.15737 0.71274 4.863 0.458496 4.41799 0.451592C3.32464 0.434214 2.23106 0.431358 1.13772 0.452545C0.479858 0.464924 0.283691 0.783919 0.551604 1.37954C1.74243 4.02505 3.06793 6.59701 4.79817 8.93996C5.68652 10.1424 6.70645 11.2039 8.02408 11.9561C9.51739 12.8089 11.1249 13.0655 12.8179 12.9864C13.6107 12.9493 13.8488 12.7434 13.8855 11.9542C13.9103 11.4143 13.9716 10.8775 14.2383 10.3923C14.5 9.91623 14.8964 9.82553 15.3533 10.1217C15.5819 10.27 15.7745 10.4588 15.9564 10.6578C16.4026 11.1453 16.8328 11.6476 17.2959 12.1187C17.8768 12.7091 18.5649 13.0579 19.4302 12.9867L22.7796 12.9874C23.3192 12.9522 23.599 12.2913 23.2892 11.6897C23.0715 11.2684 22.786 10.8932 22.4828 10.5302Z" fill="#CECECE"/>
</svg>
