<svg width="19" height="13" viewBox="0 0 19 13" fill="none" xmlns="http://www.w3.org/2000/svg">
<path d="M17.734 1.11596C17.0842 0.323322 15.8846 0 13.5936 0H5.27732C2.93389 0 1.71395 0.344178 1.06665 1.18806C0.435547 2.01084 0.435547 3.22316 0.435547 4.90102V8.09903C0.435547 11.3496 1.18435 13 5.27732 13H13.5937C15.5804 13 16.6813 12.7147 17.3935 12.0152C18.1239 11.2979 18.4355 10.1267 18.4355 8.09903V4.90102C18.4355 3.13157 18.3867 1.91211 17.734 1.11596ZM11.9916 6.94154L8.21521 8.96699C8.13078 9.01227 8.03846 9.03474 7.94625 9.03474C7.84185 9.03474 7.73768 9.0059 7.64542 8.94858C7.47169 8.84054 7.36561 8.6473 7.36561 8.43886V4.40097C7.36561 4.19288 7.4714 3.99982 7.64478 3.89173C7.81822 3.78364 8.03393 3.77625 8.21387 3.87218L11.9903 5.88458C12.1824 5.98695 12.3031 6.1905 12.3034 6.41258C12.3036 6.63485 12.1835 6.8387 11.9916 6.94154Z" fill="#CECECE"/>
</svg>
