<svg width="43" height="36" viewBox="0 0 43 36" fill="none" xmlns="http://www.w3.org/2000/svg">
<path d="M1.59473 10.7945L4.67667 8.25521M25.3697 10.7945L14.754 2.04787C14.0153 1.43928 12.9491 1.43928 12.2104 2.04787L4.67667 8.25521M4.67667 8.25521V18.5891C4.67667 19.6936 5.5721 20.5891 6.67667 20.5891H8.25802L8.28362 20.5894C9.39774 20.6031 10.3083 19.7037 10.3083 18.5895V14.0976C10.3083 12.993 11.2037 12.0976 12.3083 12.0976H14.7153C15.8199 12.0976 16.7153 12.993 16.7153 14.0976V14.9365M22.1276 8.1233C22.1276 8.59819 22.1276 11.7883 22.1276 15.9436" stroke="#FF000D" stroke-width="1.5" stroke-linecap="round" stroke-linejoin="round"/>
<path d="M42 15.7373C42 16.1561 42 29.5101 42 33.2944C42 33.8467 41.5685 34.285 41.0162 34.285C36.307 34.285 15.7855 34.285 3.40882 34.285C2.51792 34.285 2.07714 33.2078 2.70711 32.5779L18.1084 17.1766C18.4989 16.7861 19.1321 16.7861 19.5226 17.1766L25.3689 23.0229C25.7824 23.4364 26.461 23.4084 26.839 22.9622L41.0238 6.21948" stroke="#0D0D0D" stroke-width="1.5" stroke-linecap="round"/>
<path d="M8.80957 30.136V34.0407" stroke="#0D0D0D" stroke-width="1.5" stroke-linecap="round"/>
<path d="M14.1787 24.5228V34.2847M19.7918 20.7471V34.2847M25.1609 25.9871V34.2847M31.018 23.0586V34.2847M36.387 17.2014V34.2847" stroke="#0D0D0D" stroke-width="1.5" stroke-linecap="round"/>
<path d="M37.3584 6.04907H41.2632V9.95383" stroke="#0D0D0D" stroke-width="1.5" stroke-linecap="round"/>
</svg>
