<svg width="41" height="35" viewBox="0 0 41 35" fill="none" xmlns="http://www.w3.org/2000/svg">
<path d="M18.25 9.25H27.625" stroke="#0D0D0D" stroke-width="1.5"/>
<path d="M17.875 13.7498H21.25M23.875 13.7498H35.125M23.875 17.8748H35.125M35.125 22.3747H28.75" stroke="#0D0D0D" stroke-width="1.5"/>
<path d="M31.75 1V8.24999C31.75 8.80227 32.1977 9.24999 32.75 9.24999H40" stroke="#0D0D0D" stroke-width="1.5" stroke-linejoin="round"/>
<path d="M13 9.99999V3C13 1.89543 13.8954 1 15 1H30.9216C31.452 1 31.9607 1.21071 32.3358 1.58579L39.0392 8.2892C39.4143 8.66428 39.625 9.17298 39.625 9.70342V32C39.625 33.1045 38.7295 34 37.625 34H27.625" stroke="#0D0D0D" stroke-width="1.5" stroke-linecap="round"/>
<path d="M1 23.5L4.20833 20.875M25.75 23.5L14.6415 14.4112C13.9047 13.8084 12.8452 13.8084 12.1085 14.4112L4.20833 20.875M4.20833 20.875V33.625M22.375 20.7386C22.375 21.2295 22.375 29.3295 22.375 33.625M1.75 34H24.625" stroke="#FF000D" stroke-width="1.5" stroke-linecap="round" stroke-linejoin="round"/>
<path d="M16.75 34V26C16.75 25.4477 16.3023 25 15.75 25H11C10.4477 25 10 25.4477 10 26V34" stroke="#FF000D" stroke-width="1.5" stroke-linecap="round" stroke-linejoin="round"/>
</svg>
