<svg width="37" height="35" viewBox="0 0 37 35" fill="none" xmlns="http://www.w3.org/2000/svg">
<path d="M14.5723 9.25H23.9473" stroke="#0D0D0D" stroke-width="1.5"/>
<path d="M20.1973 13.75H31.4473M20.1973 17.875H31.4473M31.4473 22.375H25.0723" stroke="#0D0D0D" stroke-width="1.5"/>
<path d="M28.0723 1V8.25C28.0723 8.80228 28.52 9.25 29.0723 9.25H36.3223" stroke="#0D0D0D" stroke-width="1.5" stroke-linejoin="round"/>
<path d="M9.32227 7.79839V3C9.32227 1.89543 10.2177 1 11.3223 1H27.2438C27.7743 1 28.283 1.21071 28.6581 1.58579L35.3615 8.28921C35.7366 8.66429 35.9473 9.17299 35.9473 9.70343V32C35.9473 33.1046 35.0518 34 33.9473 34H20.1973" stroke="#0D0D0D" stroke-width="1.5" stroke-linecap="round"/>
<path d="M19.0968 23.6985C19.0968 28.751 13.4374 34.0001 10.0484 34.0001C6.65936 34.0001 1 28.8666 1 23.8141V16.2099C1 14.9061 2.24203 13.9586 3.54567 13.935C5.5929 13.898 7.60123 13.2051 9.29161 11.9054C9.74129 11.5585 10.3555 11.5585 10.8052 11.9054C12.4955 13.1969 14.5038 13.8931 16.5509 13.9329C17.8545 13.9583 19.0968 14.9061 19.0968 16.2099V23.6985Z" stroke="#FF000D" stroke-width="1.5" stroke-miterlimit="10"/>
<path d="M7.38672 23.7807L9.89146 25.4839L13.2416 20.6936" stroke="#FF000D" stroke-width="1.5" stroke-linecap="round" stroke-linejoin="round"/>
</svg>
