<svg width="43" height="35" viewBox="0 0 43 35" fill="none" xmlns="http://www.w3.org/2000/svg">
<path d="M1 25.628L3.62533 23.48M21.2526 25.628L12.3928 18.3791C11.656 17.7763 10.5965 17.7763 9.8598 18.3791L3.62533 23.48M3.62533 23.48V33.9132M18.4908 23.3684C18.4908 23.7702 18.4908 30.3983 18.4908 33.9132M1.61371 34.22H20.332" stroke="#FF000D" stroke-width="1.5" stroke-linecap="round" stroke-linejoin="round"/>
<path d="M13.8877 34.22V27.8555C13.8877 27.3032 13.44 26.8555 12.8877 26.8555H9.36426C8.81197 26.8555 8.36426 27.3032 8.36426 27.8555V34.22" stroke="#FF000D" stroke-width="1.5" stroke-linecap="round" stroke-linejoin="round"/>
<path d="M10.6082 13.9674C11.0725 12.2863 11.9653 10.6986 13.2867 9.37727C17.3611 5.30288 23.967 5.30288 28.0413 9.37727C32.1157 13.4517 32.1157 20.0576 28.0413 24.1319C26.7872 25.3861 25.2932 26.2542 23.707 26.7363" stroke="#0D0D0D" stroke-width="1.5" stroke-linecap="round"/>
<path d="M26.8564 25.0297L31.4982 30.8395C32.0367 31.5136 32.9057 31.832 33.7522 31.6653V31.6653C34.6735 31.484 35.3938 30.7637 35.5751 29.8424V29.8424C35.7418 28.9959 35.4234 28.1269 34.7493 27.5884L28.9395 22.9466" stroke="#0D0D0D" stroke-width="1.5"/>
</svg>
