<svg width="44" height="35" viewBox="0 0 44 35" fill="none" xmlns="http://www.w3.org/2000/svg">
<path d="M34.2689 25.9884C34.2689 26.2093 34.0898 26.3884 33.8689 26.3884H32.8702C32.6493 26.3884 32.4702 26.5675 32.4702 26.7884V27.4889C32.4702 27.7098 32.2911 27.8889 32.0702 27.8889H31.8447C31.6238 27.8889 31.4447 27.7098 31.4447 27.4889V26.7884C31.4447 26.5675 31.2656 26.3884 31.0447 26.3884H30.7333C30.5123 26.3884 30.3333 26.2093 30.3333 25.9884V25.9263C30.3333 25.7054 30.5123 25.5263 30.7333 25.5263H31.0709C31.2773 25.5263 31.4447 25.359 31.4447 25.1525C31.4447 24.9461 31.2773 24.7788 31.0709 24.7788H30.7333C30.5123 24.7788 30.3333 24.5997 30.3333 24.3788V24.3221C30.3333 24.1012 30.5123 23.9221 30.7333 23.9221H31.0447C31.2656 23.9221 31.4447 23.7431 31.4447 23.5221V20.3445C31.4447 20.1235 31.6238 19.9445 31.8447 19.9445H34.3279C35.1655 19.9445 35.8295 20.1609 36.3199 20.5938C36.8103 21.0266 37.0555 21.6123 37.0555 22.3507C37.0555 23.1255 36.8192 23.7239 36.3467 24.1458C35.8778 24.5642 35.2103 24.7751 34.344 24.7788H32.8439C32.6375 24.7788 32.4702 24.9461 32.4702 25.1525C32.4702 25.359 32.6375 25.5263 32.8439 25.5263H33.8689C34.0898 25.5263 34.2689 25.7054 34.2689 25.9263V25.9884ZM32.4702 23.5221C32.4702 23.7431 32.6493 23.9221 32.8702 23.9221H34.3279C34.8827 23.9221 35.3051 23.7894 35.5951 23.5238C35.885 23.2583 36.03 22.8709 36.03 22.3616C36.03 21.8996 35.8796 21.5268 35.5789 21.2431C35.2783 20.9557 34.872 20.8102 34.3601 20.8066H32.8702C32.6493 20.8066 32.4702 20.9856 32.4702 21.2066V23.5221Z" fill="#FF000D"/>
<path d="M6.74234 17.0785V33.9227M2.14847 33.9227H15.9301M25.4444 33.9227H15.9301M15.9301 33.9227V22.9068C15.9301 21.8022 16.8255 20.9068 17.9301 20.9068H20.9068M1 17.0785L19.6242 2.03591C20.369 1.43432 21.4357 1.44498 22.1684 2.06131L32.1667 10.4722" stroke="#0D0D0D" stroke-width="1.5" stroke-linecap="round"/>
<circle cx="33.3889" cy="23.6111" r="9.63889" stroke="#FF000D" stroke-width="1.5"/>
</svg>
