<svg width="52" height="43" viewBox="0 0 52 43" fill="none" xmlns="http://www.w3.org/2000/svg">
<g filter="url(#filter0_d)">
<path d="M38.2686 25.9884C38.2686 26.2093 38.0895 26.3884 37.8686 26.3884H36.8699C36.649 26.3884 36.4699 26.5675 36.4699 26.7884V27.4889C36.4699 27.7098 36.2909 27.8889 36.0699 27.8889H35.8444C35.6235 27.8889 35.4444 27.7098 35.4444 27.4889V26.7884C35.4444 26.5675 35.2653 26.3884 35.0444 26.3884H34.733C34.5121 26.3884 34.333 26.2093 34.333 25.9884V25.9263C34.333 25.7054 34.5121 25.5263 34.733 25.5263H35.0707C35.2771 25.5263 35.4444 25.359 35.4444 25.1525C35.4444 24.9461 35.2771 24.7788 35.0707 24.7788H34.733C34.5121 24.7788 34.333 24.5997 34.333 24.3788V24.3221C34.333 24.1012 34.5121 23.9221 34.733 23.9221H35.0444C35.2653 23.9221 35.4444 23.7431 35.4444 23.5221V20.3445C35.4444 20.1235 35.6235 19.9445 35.8444 19.9445H38.3277C39.1653 19.9445 39.8293 20.1609 40.3197 20.5938C40.81 21.0266 41.0552 21.6123 41.0552 22.3507C41.0552 23.1255 40.819 23.7239 40.3465 24.1458C39.8776 24.5642 39.21 24.7751 38.3438 24.7788H36.8437C36.6373 24.7788 36.4699 24.9461 36.4699 25.1525C36.4699 25.359 36.6373 25.5263 36.8437 25.5263H37.8686C38.0895 25.5263 38.2686 25.7054 38.2686 25.9263V25.9884ZM36.4699 23.5221C36.4699 23.7431 36.649 23.9221 36.8699 23.9221H38.3277C38.8825 23.9221 39.3049 23.7894 39.5948 23.5238C39.8847 23.2583 40.0297 22.8709 40.0297 22.3616C40.0297 21.8996 39.8794 21.5268 39.5787 21.2431C39.278 20.9557 38.8718 20.8102 38.3599 20.8066H36.8699C36.649 20.8066 36.4699 20.9856 36.4699 21.2066V23.5221Z" fill="#FF000D"/>
<path d="M10.7423 17.0785V33.9227M6.14847 33.9227H19.9301M29.4444 33.9227H19.9301M19.9301 33.9227V22.9068C19.9301 21.8022 20.8255 20.9068 21.9301 20.9068H24.9068M5 17.0785L23.6242 2.03591C24.369 1.43432 25.4357 1.44498 26.1684 2.06131L36.1667 10.4722" stroke="#0D0D0D" stroke-width="1.5" stroke-linecap="round"/>
<circle cx="37.3889" cy="23.6111" r="9.63889" stroke="#FF000D" stroke-width="1.5"/>
</g>
<defs>
<filter id="filter0_d" x="0.25" y="0.841797" width="51.5278" height="41.8309" filterUnits="userSpaceOnUse" color-interpolation-filters="sRGB">
<feFlood flood-opacity="0" result="BackgroundImageFix"/>
<feColorMatrix in="SourceAlpha" type="matrix" values="0 0 0 0 0 0 0 0 0 0 0 0 0 0 0 0 0 0 127 0"/>
<feOffset dy="4"/>
<feGaussianBlur stdDeviation="2"/>
<feColorMatrix type="matrix" values="0 0 0 0 0 0 0 0 0 0 0 0 0 0 0 0 0 0 0.25 0"/>
<feBlend mode="normal" in2="BackgroundImageFix" result="effect1_dropShadow"/>
<feBlend mode="normal" in="SourceGraphic" in2="effect1_dropShadow" result="shape"/>
</filter>
</defs>
</svg>
