<svg width="19" height="15" viewBox="0 0 19 15" fill="none" xmlns="http://www.w3.org/2000/svg">
<path d="M2.245 8.49607H0.272C0.122 8.49607 0 8.62007 0 8.77007V14.4871C0 14.6371 0.122 14.7591 0.272 14.7591H2.245C2.395 14.7591 2.517 14.6371 2.517 14.4871V8.77007C2.518 8.62007 2.396 8.49607 2.245 8.49607Z" fill="#0D0D0D"/>
<path d="M18.504 8.49607H16.531C16.381 8.49607 16.26 8.62007 16.26 8.77007V14.4871C16.26 14.6371 16.381 14.7591 16.531 14.7591H18.504C18.656 14.7591 18.777 14.6371 18.777 14.4871V8.77007C18.777 8.62007 18.656 8.49607 18.504 8.49607Z" fill="#0D0D0D"/>
<path d="M5.907 5.22807H3.934C3.784 5.22807 3.661 5.35007 3.661 5.50107V14.4851C3.661 14.6351 3.784 14.7571 3.934 14.7571H5.907C6.058 14.7571 6.18 14.6351 6.18 14.4851V5.50107C6.18 5.34907 6.058 5.22807 5.907 5.22807Z" fill="#0D0D0D"/>
<path d="M14.271 5.22807H12.298C12.148 5.22807 12.027 5.35007 12.027 5.50107V14.4851C12.027 14.6351 12.148 14.7571 12.298 14.7571H14.271C14.423 14.7571 14.544 14.6351 14.544 14.4851V5.50107C14.545 5.34907 14.424 5.22807 14.271 5.22807Z" fill="#0D0D0D"/>
<path d="M10.01 7.21807H8.036C7.886 7.21807 7.764 7.34107 7.764 7.49007V14.4841C7.764 14.6341 7.886 14.7561 8.036 14.7561H10.01C10.162 14.7561 10.283 14.6341 10.283 14.4841V7.49007C10.283 7.34107 10.162 7.21807 10.01 7.21807Z" fill="#0D0D0D"/>
<path d="M1.259 4.94707C1.84 4.94707 2.31 4.47707 2.31 3.89607C2.31 3.79507 2.291 3.70007 2.264 3.60807L4.475 2.01707C4.611 2.08107 4.761 2.11907 4.921 2.11907C5.23 2.11907 5.504 1.98407 5.697 1.77207L7.784 2.98007C7.772 3.04207 7.764 3.10607 7.764 3.17007C7.764 3.75007 8.235 4.22107 8.815 4.22107C9.374 4.22107 9.827 3.78307 9.859 3.23207L12.673 2.40907C12.864 2.67107 13.171 2.84407 13.521 2.84407C13.753 2.84407 13.964 2.76707 14.138 2.63907L16.503 4.24307C16.483 4.32607 16.466 4.41307 16.466 4.50307C16.466 5.08407 16.937 5.55507 17.517 5.55507C18.097 5.55507 18.57 5.08407 18.57 4.50307C18.57 3.92207 18.097 3.45207 17.517 3.45207C17.285 3.45207 17.074 3.52907 16.9 3.65607L14.537 2.05507C14.557 1.97107 14.572 1.88507 14.572 1.79507C14.572 1.21407 14.103 0.744066 13.521 0.744066C12.962 0.744066 12.509 1.18207 12.476 1.73307L9.663 2.55507C9.472 2.29207 9.164 2.12007 8.815 2.12007C8.556 2.12007 8.323 2.21607 8.14 2.37107L5.968 1.11207C5.968 1.09707 5.972 1.08407 5.972 1.07007C5.972 0.489066 5.502 0.0180664 4.921 0.0180664C4.34 0.0180664 3.87 0.488067 3.87 1.06907C3.87 1.22707 3.908 1.37507 3.97 1.51007L1.855 3.03207C1.686 2.91407 1.481 2.84507 1.259 2.84507C0.678 2.84507 0.208 3.31607 0.208 3.89607C0.208 4.47707 0.678 4.94707 1.259 4.94707Z" fill="#0D0D0D"/>
</svg>
