<svg width="212" height="78" viewBox="0 0 212 78" fill="none" xmlns="http://www.w3.org/2000/svg">
<path fill-rule="evenodd" clip-rule="evenodd" d="M30.3504 47.1628H22.4684V55.8697H17.4855H13.0462C11.1436 55.8697 9.78462 55.5069 9.15043 54.7813C8.51623 54.0557 8.15385 53.0581 8.15385 51.6977V45.7115C8.15385 44.351 8.51623 43.3535 9.15043 42.6279C9.78462 41.9023 11.1436 41.5394 13.0462 41.5394H17.4855H22.4684H30.3504V35.5535H21.1094H9.42222C5.88888 35.5535 3.44274 36.1883 2.08376 37.458C0.724789 38.7278 0 40.6325 0 43.1721V54.4186C0 56.9581 0.724789 58.8627 2.08376 60.1324C3.44274 61.4022 5.88888 62.0371 9.42222 62.0371H21.1094H30.3504V47.1628Z" fill="#FF000D"/>
<path fill-rule="evenodd" clip-rule="evenodd" d="M53.3623 46.7093V41.4488H58.2546H62.6939C64.7777 41.4488 66.1366 41.8116 66.7708 42.4465C67.405 43.0814 67.6768 43.6256 67.6768 44.079C67.6768 44.5325 67.405 45.0767 66.7708 45.7116C66.1366 46.3465 64.7777 46.7093 62.6939 46.7093H53.3623ZM67.2238 52.6953H68.4016C70.6665 52.6953 72.3879 52.0604 73.7469 50.7C75.0153 49.4302 75.7401 47.5256 75.7401 45.0767V44.1697V42.9907C75.7401 40.5418 75.1059 38.6372 73.7469 37.3674C72.4785 36.0977 70.0324 35.3721 66.499 35.3721H54.8118H45.4802V61.8558H53.3623V52.6953H58.2546L67.1332 61.8558H76.1024L67.2238 52.6953ZM121.039 54.2372V42.9907C121.039 40.5418 120.405 38.6372 119.046 37.3674C117.778 36.0977 115.332 35.3721 111.798 35.3721H100.111C96.5777 35.3721 94.1315 36.007 92.7725 37.2767C91.4136 38.5465 90.6888 40.4511 90.6888 42.9907V54.2372C90.6888 56.7767 91.4136 58.6814 92.7725 59.9511C94.1315 61.2209 96.5777 61.8558 100.111 61.8558H111.798C115.332 61.8558 117.778 61.2209 119.046 59.8604C120.405 58.5907 121.039 56.686 121.039 54.2372ZM113.067 51.6977C112.976 53.1488 112.704 54.1465 112.07 54.8721C111.526 55.507 110.167 55.8697 108.084 55.8697H103.644C101.742 55.8697 100.383 55.507 99.7486 54.7814C99.1144 54.0558 98.752 53.0581 98.752 51.6977V45.7116C98.752 44.3511 99.1144 43.3535 99.7486 42.6279C100.383 41.9023 101.742 41.5395 103.644 41.5395H108.084C110.167 41.5395 111.526 41.9023 112.161 42.5372C112.795 43.1721 113.067 44.2604 113.067 45.7116V51.6977ZM189.441 46.7093V41.4488H194.333H198.773C200.856 41.4488 202.215 41.8116 202.849 42.4465C203.484 43.0814 203.755 43.6256 203.755 44.079C203.755 44.5325 203.484 45.0767 202.849 45.7116C202.215 46.3465 200.856 46.7093 198.773 46.7093H189.441ZM166.429 35.3721V54.2372C166.429 56.686 165.795 58.5907 164.436 59.8604C163.167 61.1302 160.721 61.8558 157.188 61.8558H145.501C141.967 61.8558 139.521 61.2209 138.162 59.9511C136.803 58.6814 136.079 56.7767 136.079 54.2372V35.3721H140.065H144.051V51.607C144.051 52.9674 144.414 53.9651 145.048 54.6907C145.682 55.4163 147.041 55.779 148.943 55.779H153.383C155.467 55.779 156.826 55.4163 157.46 54.7814C158.094 54.1465 158.366 53.0581 158.366 51.607V35.3721H166.429ZM189.441 52.6953H194.333H197.867H202.487C206.02 52.6953 208.467 52.0604 209.735 50.7C211.003 49.4302 211.728 47.5256 211.728 45.0767V44.1697V42.9907C211.728 40.5418 211.094 38.6372 209.735 37.3674C208.467 36.0977 206.02 35.3721 202.487 35.3721H190.8H181.468V42.9907V54.2372V61.8558H189.35V52.6953H189.441Z" fill="#FF000D"/>
<path fill-rule="evenodd" clip-rule="evenodd" d="M132.545 26.393H124.573V8.07202H132.545V19.3185V26.393Z" fill="#FF000D"/>
<path fill-rule="evenodd" clip-rule="evenodd" d="M79.2734 26.393V0H88.5145H100.202C103.735 0 106.181 0.634885 107.54 1.90465C108.899 3.17442 109.624 5.07907 109.624 7.6186V18.7744C109.624 21.314 108.899 23.2186 107.54 24.4884C106.181 25.7581 103.735 26.393 100.202 26.393H88.5145H79.2734ZM87.1555 5.98605V20.407H92.1384H96.5777C98.4803 20.407 99.8393 20.0442 100.473 19.3186C101.108 18.593 101.47 17.5953 101.47 16.2349V10.2488C101.47 8.88837 101.108 7.8907 100.473 7.16512C99.8393 6.43953 98.4803 6.07674 96.5777 6.07674H92.1384H87.1555V5.98605Z" fill="#FF000D"/>
<path fill-rule="evenodd" clip-rule="evenodd" d="M132.545 5.98605H124.573V0H132.545V3.62791V5.98605Z" fill="#FF000D"/>
<path fill-rule="evenodd" clip-rule="evenodd" d="M0.0900879 75.0976H1.72086V72.286H4.8918V75.1883H6.52257V68.0232H4.8918V70.9255H1.72086V68.0232H0.0900879V75.0976ZM13.4081 75.279C14.6764 75.279 15.673 74.7348 16.3072 73.9185L15.3106 73.1022C14.767 73.6464 14.1328 73.9185 13.4081 73.9185C12.3209 73.9185 11.5055 73.2836 11.3243 72.1046H16.579C16.579 72.0139 16.579 71.7418 16.579 71.6511C16.579 69.565 15.4012 67.8418 13.1363 67.8418C11.0525 67.8418 9.60293 69.565 9.60293 71.5604C9.78413 73.8278 11.3243 75.279 13.4081 75.279ZM11.4149 71.1069C11.5961 70.0185 12.2303 69.2022 13.2269 69.2022C14.314 69.2022 14.9482 70.0185 15.0388 71.1069H11.4149ZM19.1158 76.8208H20.4747L20.6559 75.0976H25.6388V76.8208H26.9978L27.179 73.7371H26.1824V68.0232H20.6559V68.9302C20.6559 70.9255 20.4747 72.5581 19.8405 73.8278H19.0252V76.8208H19.1158ZM21.5619 73.7371C22.0149 72.8301 22.1961 71.6511 22.1961 70.3813V69.4743H24.5516V73.8278H21.5619V73.7371ZM30.1687 75.0976H33.8833C35.514 75.0976 36.5106 74.372 36.5106 73.1929C36.5106 72.1953 35.8764 71.6511 35.0611 71.379C35.6952 71.1069 36.2388 70.6534 36.2388 69.7464C36.2388 68.6581 35.3328 67.9325 33.8833 67.9325H30.2593V75.0976H30.1687ZM31.7995 73.8278V72.0139H33.6115C34.5175 72.0139 34.8799 72.3767 34.8799 72.9208C34.8799 73.465 34.4269 73.8278 33.7021 73.8278H31.7995ZM31.7995 70.9255V69.2022H33.5209C34.2457 69.2022 34.5175 69.565 34.5175 70.0185C34.5175 70.5627 34.1551 70.9255 33.4303 70.9255H31.7995ZM39.7722 75.0976H41.3123L44.6645 70.2906V75.0976H46.2046V67.9325H44.6645C43.4867 69.565 42.3995 71.1069 41.3123 72.7394V67.9325H39.6816V75.0976H39.7722ZM49.0132 75.0976H50.8252L52.9089 72.0139L53.9961 73.2836V75.0976H55.6269V73.2836L56.714 72.0139L58.7978 75.0976H60.6098L57.8012 70.9255L60.5192 67.9325H58.6166L55.6269 71.4697V67.9325H53.9961V71.4697L51.0063 67.9325H49.1038L51.8217 70.9255L49.0132 75.0976ZM63.3277 75.0976H64.8679L68.22 70.2906V75.0976H69.7602V67.9325H68.22C67.0423 69.565 65.9551 71.1069 64.8679 72.7394V67.9325H63.2371V75.0976H63.3277ZM73.4747 75.0976H75.1055V70.3813L77.3705 73.5557L79.6354 70.3813V75.1883H81.2662V68.0232H79.6354L77.3705 71.379L75.1055 68.0232H73.4747V75.0976ZM88.2422 75.279C90.4166 75.279 92.0474 73.5557 92.0474 71.5604C92.0474 69.4743 90.4166 67.8418 88.2422 67.8418C86.0679 67.8418 84.4371 69.565 84.4371 71.5604C84.4371 73.6464 86.0679 75.279 88.2422 75.279ZM88.2422 73.9185C86.9739 73.9185 86.0679 72.8301 86.0679 71.6511C86.0679 70.3813 86.8833 69.3836 88.2422 69.3836C89.5106 69.3836 90.4166 70.3813 90.4166 71.6511C90.4166 72.8301 89.6012 73.9185 88.2422 73.9185ZM98.661 75.279C100.02 75.279 100.835 74.7348 101.56 73.9185L100.564 72.9208C100.02 73.465 99.4764 73.8278 98.7516 73.8278C97.4833 73.8278 96.5773 72.8302 96.5773 71.5604C96.5773 70.2906 97.4833 69.2929 98.661 69.2929C99.4764 69.2929 100.02 69.6557 100.473 70.1999L101.47 69.1115C100.835 68.386 99.9294 67.8418 98.661 67.8418C96.4867 67.8418 94.9465 69.565 94.9465 71.5604C94.9465 73.6464 96.4867 75.279 98.661 75.279ZM106.09 75.0976H107.721V69.3836H109.986V67.9325H103.735V69.3836H106V75.0976H106.09ZM112.976 75.0976H116.328C118.049 75.0976 119.046 74.1906 119.046 72.7394C119.046 71.1976 117.777 70.472 116.237 70.472H114.606V67.9325H112.976V75.0976ZM114.606 73.8278V71.7418H116.147C116.962 71.7418 117.505 72.1046 117.505 72.7394C117.505 73.465 117.053 73.8278 116.237 73.8278H114.606ZM126.112 75.0976H127.652L131.005 70.2906V75.0976H132.545V67.9325H131.005C129.827 69.565 128.74 71.1069 127.652 72.7394V67.9325H126.112V75.0976ZM144.504 77.2743H146.135V74.5534C146.497 74.9162 147.041 75.1883 147.765 75.1883C149.487 75.1883 150.664 73.8278 150.664 71.5604C150.664 69.2022 149.487 67.8418 147.765 67.8418C147.041 67.8418 146.497 68.2046 146.135 68.5674V65.665H144.504V68.5674C144.141 68.2046 143.598 67.8418 142.873 67.8418C141.152 67.8418 139.974 69.2022 139.974 71.5604C139.974 73.9185 141.152 75.279 142.873 75.279C143.598 75.279 144.141 75.0069 144.504 74.6441V77.2743ZM143.417 73.9185C142.239 73.9185 141.695 73.0115 141.695 71.6511C141.695 70.2906 142.329 69.2929 143.417 69.2929C143.87 69.2929 144.232 69.4743 144.594 69.8371V73.465C144.232 73.7371 143.87 73.9185 143.417 73.9185ZM147.312 73.9185C146.859 73.9185 146.497 73.7371 146.135 73.465V69.8371C146.497 69.565 146.859 69.2929 147.312 69.2929C148.49 69.2929 149.034 70.1999 149.034 71.5604C149.034 73.0115 148.49 73.9185 147.312 73.9185ZM154.017 75.0976H155.557L158.909 70.2906V75.0976H160.449V67.9325H158.909C157.731 69.565 156.644 71.1069 155.557 72.7394V67.9325H153.926V75.0976H154.017ZM164.164 75.0976H165.794V72.286H168.965V75.1883H170.596V68.0232H168.965V70.9255H165.794V68.0232H164.164V75.0976ZM180.2 75.0976V70.8348C180.2 68.9302 179.203 67.8418 177.029 67.8418C175.851 67.8418 175.126 68.1139 174.311 68.4767L174.764 69.7464C175.398 69.4743 176.032 69.2929 176.847 69.2929C178.025 69.2929 178.569 69.8371 178.569 70.8348V70.9255C178.025 70.7441 177.482 70.6534 176.576 70.6534C174.945 70.6534 173.676 71.379 173.676 73.0115C173.676 74.4627 174.854 75.279 176.213 75.279C177.3 75.279 178.025 74.8255 178.569 74.2813V75.1883H180.2V75.0976ZM178.659 72.5581C178.659 73.465 177.844 74.0999 176.757 74.0999C175.941 74.0999 175.398 73.7371 175.398 73.0115C175.398 72.286 176.032 71.8325 177.029 71.8325C177.663 71.8325 178.206 71.9232 178.659 72.1046V72.5581ZM183.733 75.0976H185.364V72.286H188.535V75.1883H190.165V68.0232H188.535V70.9255H185.364V68.0232H183.733V75.0976ZM197.141 75.279C198.5 75.279 199.316 74.7348 200.041 73.9185L199.044 72.9208C198.5 73.465 197.957 73.8278 197.232 73.8278C195.964 73.8278 195.058 72.8302 195.058 71.5604C195.058 70.2906 195.964 69.2929 197.141 69.2929C197.957 69.2929 198.5 69.6557 198.953 70.1999L199.95 69.1115C199.316 68.386 198.41 67.8418 197.141 67.8418C194.967 67.8418 193.427 69.565 193.427 71.5604C193.427 73.6464 194.967 75.279 197.141 75.279ZM203.03 75.0976H206.292C208.013 75.0976 209.01 74.1906 209.01 72.7394C209.01 71.1976 207.741 70.472 206.201 70.472H204.661V67.9325H203.03V75.0976ZM204.661 73.8278V71.7418H206.02C206.835 71.7418 207.379 72.1046 207.379 72.7394C207.379 73.465 206.926 73.8278 206.111 73.8278H204.661ZM210.097 75.0976H211.728V67.9325H210.097V75.0976Z" fill="black"/>
</svg>
