<svg width="19" height="16" viewBox="0 0 19 16" fill="none" xmlns="http://www.w3.org/2000/svg">
<path d="M1.57399 1.47863C3.64021 -0.492802 7.00332 -0.492802 9.0702 1.47818L9.49996 1.88747L9.92928 1.47837C11.9964 -0.492876 15.3591 -0.492653 17.4262 1.47837C18.4411 2.4463 19 3.73016 19 5.09309C19 6.45647 18.4411 7.74011 17.426 8.70845L9.95889 15.8164C9.83046 15.939 9.6651 16 9.5 16C9.3349 16 9.16976 15.9387 9.04111 15.8162L1.57399 8.70845C0.559127 7.74033 0 6.45651 0 5.09332C0 3.73016 0.559127 2.44652 1.57399 1.47863ZM2.49267 7.73922L9.5 14.4098L16.5071 7.73944C17.2549 7.02646 17.6667 6.08662 17.6667 5.09332C17.6667 4.10001 17.2549 3.16017 16.5071 2.44719C15.7271 1.70299 14.7027 1.33114 13.678 1.33114C12.6531 1.33114 11.6282 1.70344 10.8482 2.44764L9.95934 3.29412C9.70202 3.53943 9.29824 3.53943 9.04088 3.29412L8.15178 2.44719C6.59155 0.959019 4.05312 0.959019 2.4929 2.44719C1.74533 3.16021 1.33334 4.10001 1.33334 5.09332C1.33334 6.08662 1.74533 7.02624 2.49267 7.73922Z" fill="#0D0D0D"/>
</svg>
